<svg xmlns="http://www.w3.org/2000/svg" xmlns:xlink="http://www.w3.org/1999/xlink" width="500" zoomAndPan="magnify" viewBox="0 0 375 374.999991" height="500" preserveAspectRatio="xMidYMid meet" version="1.0"><defs><g/><clipPath id="cd44c34260"><path d="M 135 95 L 242 95 L 242 202 L 135 202 Z M 135 95 " clip-rule="nonzero"/></clipPath><clipPath id="4447ecad8b"><path d="M 213.546875 84.167969 L 252.789062 123.410156 L 174.832031 201.371094 L 135.585938 162.125 Z M 213.546875 84.167969 " clip-rule="nonzero"/></clipPath><clipPath id="d1feee6664"><path d="M 213.546875 84.167969 L 252.789062 123.410156 L 174.832031 201.371094 L 135.585938 162.125 Z M 213.546875 84.167969 " clip-rule="nonzero"/></clipPath><clipPath id="17e68432e4"><path d="M 229.722656 101.75 L 206.550781 95.617188 C 206.054688 95.472656 205.550781 95.398438 205.035156 95.386719 C 204.519531 95.375 204.011719 95.429688 203.511719 95.554688 C 203.011719 95.679688 202.535156 95.863281 202.082031 96.113281 C 201.628906 96.363281 201.214844 96.664062 200.84375 97.023438 L 135.664062 162.203125 L 173.179688 163.824219 L 174.796875 201.335938 L 239.964844 136.167969 C 240.324219 135.792969 240.628906 135.375 240.878906 134.917969 C 241.125 134.460938 241.3125 133.980469 241.433594 133.472656 C 241.554688 132.96875 241.605469 132.457031 241.589844 131.9375 C 241.578125 131.417969 241.492188 130.90625 241.34375 130.410156 L 235.035156 107.046875 C 234.859375 106.414062 234.601562 105.8125 234.269531 105.246094 C 233.9375 104.679688 233.539062 104.164062 233.074219 103.699219 C 232.609375 103.234375 232.09375 102.839844 231.523438 102.507812 C 230.957031 102.175781 230.355469 101.925781 229.722656 101.75 Z M 229.722656 101.75 " clip-rule="nonzero"/></clipPath><linearGradient x1="-194.52571" gradientTransform="matrix(0.430286, 0.430286, -0.432023, 0.432023, 145.807954, 338.242304)" y1="-408.62115" x2="-147.832742" gradientUnits="userSpaceOnUse" y2="-129.941897" id="c60557525d"><stop stop-opacity="1" stop-color="rgb(100%, 72.198486%, 0%)" offset="0"/><stop stop-opacity="1" stop-color="rgb(100%, 72.198486%, 0%)" offset="0.125"/><stop stop-opacity="1" stop-color="rgb(100%, 72.198486%, 0%)" offset="0.144002"/><stop stop-opacity="1" stop-color="rgb(100%, 72.198486%, 0%)" offset="0.1875"/><stop stop-opacity="1" stop-color="rgb(100%, 72.198486%, 0%)" offset="0.21875"/><stop stop-opacity="1" stop-color="rgb(100%, 72.198486%, 0%)" offset="0.226562"/><stop stop-opacity="1" stop-color="rgb(99.699402%, 72.210693%, 0.238037%)" offset="0.230469"/><stop stop-opacity="1" stop-color="rgb(99.398804%, 72.2229%, 0.476074%)" offset="0.234375"/><stop stop-opacity="1" stop-color="rgb(98.38562%, 72.262573%, 1.283264%)" offset="0.238281"/><stop stop-opacity="1" stop-color="rgb(97.372437%, 72.302246%, 2.090454%)" offset="0.242187"/><stop stop-opacity="1" stop-color="rgb(96.359253%, 72.340393%, 2.896118%)" offset="0.246094"/><stop stop-opacity="1" stop-color="rgb(95.346069%, 72.380066%, 3.703308%)" offset="0.25"/><stop stop-opacity="1" stop-color="rgb(94.332886%, 72.419739%, 4.508972%)" offset="0.253906"/><stop stop-opacity="1" stop-color="rgb(93.319702%, 72.459412%, 5.316162%)" offset="0.257812"/><stop stop-opacity="1" stop-color="rgb(92.306519%, 72.499084%, 6.121826%)" offset="0.261719"/><stop stop-opacity="1" stop-color="rgb(91.293335%, 72.538757%, 6.929016%)" offset="0.265625"/><stop stop-opacity="1" stop-color="rgb(90.280151%, 72.57843%, 7.73468%)" offset="0.269531"/><stop stop-opacity="1" stop-color="rgb(89.266968%, 72.618103%, 8.54187%)" offset="0.273437"/><stop stop-opacity="1" stop-color="rgb(88.253784%, 72.657776%, 9.34906%)" offset="0.277344"/><stop stop-opacity="1" stop-color="rgb(87.240601%, 72.697449%, 10.15625%)" offset="0.28125"/><stop stop-opacity="1" stop-color="rgb(86.225891%, 72.735596%, 10.961914%)" offset="0.285156"/><stop stop-opacity="1" stop-color="rgb(85.212708%, 72.775269%, 11.769104%)" offset="0.289062"/><stop stop-opacity="1" stop-color="rgb(84.199524%, 72.814941%, 12.574768%)" offset="0.292969"/><stop stop-opacity="1" stop-color="rgb(83.18634%, 72.854614%, 13.381958%)" offset="0.296875"/><stop stop-opacity="1" stop-color="rgb(82.173157%, 72.894287%, 14.187622%)" offset="0.300781"/><stop stop-opacity="1" stop-color="rgb(81.159973%, 72.93396%, 14.994812%)" offset="0.304687"/><stop stop-opacity="1" stop-color="rgb(80.14679%, 72.973633%, 15.800476%)" offset="0.308594"/><stop stop-opacity="1" stop-color="rgb(79.133606%, 73.013306%, 16.607666%)" offset="0.3125"/><stop stop-opacity="1" stop-color="rgb(78.120422%, 73.052979%, 17.414856%)" offset="0.316406"/><stop stop-opacity="1" stop-color="rgb(77.107239%, 73.092651%, 18.222046%)" offset="0.320312"/><stop stop-opacity="1" stop-color="rgb(76.094055%, 73.130798%, 19.02771%)" offset="0.324219"/><stop stop-opacity="1" stop-color="rgb(75.080872%, 73.170471%, 19.8349%)" offset="0.328125"/><stop stop-opacity="1" stop-color="rgb(74.066162%, 73.210144%, 20.640564%)" offset="0.332031"/><stop stop-opacity="1" stop-color="rgb(73.052979%, 73.249817%, 21.447754%)" offset="0.335937"/><stop stop-opacity="1" stop-color="rgb(72.039795%, 73.28949%, 22.253418%)" offset="0.339844"/><stop stop-opacity="1" stop-color="rgb(71.026611%, 73.329163%, 23.060608%)" offset="0.34375"/><stop stop-opacity="1" stop-color="rgb(70.013428%, 73.368835%, 23.867798%)" offset="0.347656"/><stop stop-opacity="1" stop-color="rgb(69.000244%, 73.408508%, 24.674988%)" offset="0.351562"/><stop stop-opacity="1" stop-color="rgb(67.987061%, 73.448181%, 25.480652%)" offset="0.355469"/><stop stop-opacity="1" stop-color="rgb(66.973877%, 73.487854%, 26.287842%)" offset="0.359375"/><stop stop-opacity="1" stop-color="rgb(65.960693%, 73.526001%, 27.093506%)" offset="0.363281"/><stop stop-opacity="1" stop-color="rgb(64.94751%, 73.565674%, 27.900696%)" offset="0.367187"/><stop stop-opacity="1" stop-color="rgb(63.934326%, 73.605347%, 28.70636%)" offset="0.371094"/><stop stop-opacity="1" stop-color="rgb(62.921143%, 73.64502%, 29.51355%)" offset="0.375"/><stop stop-opacity="1" stop-color="rgb(61.906433%, 73.684692%, 30.319214%)" offset="0.378906"/><stop stop-opacity="1" stop-color="rgb(60.89325%, 73.724365%, 31.126404%)" offset="0.382812"/><stop stop-opacity="1" stop-color="rgb(59.880066%, 73.764038%, 31.933594%)" offset="0.386719"/><stop stop-opacity="1" stop-color="rgb(58.866882%, 73.803711%, 32.740784%)" offset="0.390625"/><stop stop-opacity="1" stop-color="rgb(57.853699%, 73.843384%, 33.546448%)" offset="0.394531"/><stop stop-opacity="1" stop-color="rgb(56.840515%, 73.883057%, 34.353638%)" offset="0.398438"/><stop stop-opacity="1" stop-color="rgb(55.827332%, 73.921204%, 35.159302%)" offset="0.402344"/><stop stop-opacity="1" stop-color="rgb(54.814148%, 73.960876%, 35.966492%)" offset="0.40625"/><stop stop-opacity="1" stop-color="rgb(53.800964%, 74.000549%, 36.772156%)" offset="0.410156"/><stop stop-opacity="1" stop-color="rgb(52.787781%, 74.040222%, 37.579346%)" offset="0.414062"/><stop stop-opacity="1" stop-color="rgb(51.774597%, 74.079895%, 38.38501%)" offset="0.417969"/><stop stop-opacity="1" stop-color="rgb(50.761414%, 74.119568%, 39.1922%)" offset="0.421875"/><stop stop-opacity="1" stop-color="rgb(49.74823%, 74.159241%, 39.99939%)" offset="0.425781"/><stop stop-opacity="1" stop-color="rgb(48.735046%, 74.198914%, 40.80658%)" offset="0.429687"/><stop stop-opacity="1" stop-color="rgb(47.720337%, 74.238586%, 41.612244%)" offset="0.433594"/><stop stop-opacity="1" stop-color="rgb(46.707153%, 74.278259%, 42.419434%)" offset="0.4375"/><stop stop-opacity="1" stop-color="rgb(45.69397%, 74.316406%, 43.225098%)" offset="0.441406"/><stop stop-opacity="1" stop-color="rgb(44.680786%, 74.356079%, 44.032288%)" offset="0.445312"/><stop stop-opacity="1" stop-color="rgb(43.667603%, 74.395752%, 44.837952%)" offset="0.449219"/><stop stop-opacity="1" stop-color="rgb(42.654419%, 74.435425%, 45.645142%)" offset="0.453125"/><stop stop-opacity="1" stop-color="rgb(41.641235%, 74.475098%, 46.452332%)" offset="0.457031"/><stop stop-opacity="1" stop-color="rgb(40.628052%, 74.514771%, 47.259521%)" offset="0.460938"/><stop stop-opacity="1" stop-color="rgb(39.614868%, 74.554443%, 48.065186%)" offset="0.464844"/><stop stop-opacity="1" stop-color="rgb(38.601685%, 74.594116%, 48.872375%)" offset="0.46875"/><stop stop-opacity="1" stop-color="rgb(37.588501%, 74.633789%, 49.67804%)" offset="0.472656"/><stop stop-opacity="1" stop-color="rgb(36.575317%, 74.673462%, 50.485229%)" offset="0.476563"/><stop stop-opacity="1" stop-color="rgb(35.560608%, 74.711609%, 51.290894%)" offset="0.480469"/><stop stop-opacity="1" stop-color="rgb(34.547424%, 74.751282%, 52.098083%)" offset="0.484375"/><stop stop-opacity="1" stop-color="rgb(33.534241%, 74.790955%, 52.903748%)" offset="0.488281"/><stop stop-opacity="1" stop-color="rgb(32.521057%, 74.830627%, 53.710938%)" offset="0.492187"/><stop stop-opacity="1" stop-color="rgb(31.507874%, 74.8703%, 54.518127%)" offset="0.496094"/><stop stop-opacity="1" stop-color="rgb(30.49469%, 74.909973%, 55.325317%)" offset="0.5"/><stop stop-opacity="1" stop-color="rgb(29.481506%, 74.949646%, 56.130981%)" offset="0.503906"/><stop stop-opacity="1" stop-color="rgb(28.468323%, 74.989319%, 56.938171%)" offset="0.507812"/><stop stop-opacity="1" stop-color="rgb(27.455139%, 75.028992%, 57.743835%)" offset="0.511719"/><stop stop-opacity="1" stop-color="rgb(26.441956%, 75.068665%, 58.551025%)" offset="0.515625"/><stop stop-opacity="1" stop-color="rgb(25.428772%, 75.106812%, 59.356689%)" offset="0.519531"/><stop stop-opacity="1" stop-color="rgb(24.415588%, 75.146484%, 60.163879%)" offset="0.523438"/><stop stop-opacity="1" stop-color="rgb(23.402405%, 75.186157%, 60.969543%)" offset="0.527344"/><stop stop-opacity="1" stop-color="rgb(22.389221%, 75.22583%, 61.776733%)" offset="0.53125"/><stop stop-opacity="1" stop-color="rgb(21.374512%, 75.265503%, 62.583923%)" offset="0.535156"/><stop stop-opacity="1" stop-color="rgb(20.361328%, 75.305176%, 63.391113%)" offset="0.539062"/><stop stop-opacity="1" stop-color="rgb(19.348145%, 75.344849%, 64.196777%)" offset="0.542969"/><stop stop-opacity="1" stop-color="rgb(18.334961%, 75.384521%, 65.003967%)" offset="0.546875"/><stop stop-opacity="1" stop-color="rgb(17.321777%, 75.424194%, 65.809631%)" offset="0.550781"/><stop stop-opacity="1" stop-color="rgb(16.308594%, 75.463867%, 66.616821%)" offset="0.554688"/><stop stop-opacity="1" stop-color="rgb(15.29541%, 75.502014%, 67.422485%)" offset="0.558594"/><stop stop-opacity="1" stop-color="rgb(14.282227%, 75.541687%, 68.229675%)" offset="0.5625"/><stop stop-opacity="1" stop-color="rgb(13.269043%, 75.58136%, 69.035339%)" offset="0.566406"/><stop stop-opacity="1" stop-color="rgb(12.255859%, 75.621033%, 69.842529%)" offset="0.570312"/><stop stop-opacity="1" stop-color="rgb(11.242676%, 75.660706%, 70.649719%)" offset="0.574219"/><stop stop-opacity="1" stop-color="rgb(10.229492%, 75.700378%, 71.456909%)" offset="0.578125"/><stop stop-opacity="1" stop-color="rgb(9.214783%, 75.740051%, 72.262573%)" offset="0.582031"/><stop stop-opacity="1" stop-color="rgb(8.201599%, 75.779724%, 73.069763%)" offset="0.585938"/><stop stop-opacity="1" stop-color="rgb(7.188416%, 75.819397%, 73.875427%)" offset="0.589844"/><stop stop-opacity="1" stop-color="rgb(6.175232%, 75.85907%, 74.682617%)" offset="0.59375"/><stop stop-opacity="1" stop-color="rgb(5.162048%, 75.897217%, 75.488281%)" offset="0.597656"/><stop stop-opacity="1" stop-color="rgb(4.148865%, 75.93689%, 76.295471%)" offset="0.601562"/><stop stop-opacity="1" stop-color="rgb(3.135681%, 75.976562%, 77.102661%)" offset="0.605469"/><stop stop-opacity="1" stop-color="rgb(2.122498%, 76.016235%, 77.909851%)" offset="0.609375"/><stop stop-opacity="1" stop-color="rgb(1.109314%, 76.055908%, 78.715515%)" offset="0.613281"/><stop stop-opacity="1" stop-color="rgb(0.0961304%, 76.095581%, 79.522705%)" offset="0.617188"/><stop stop-opacity="1" stop-color="rgb(0.0473022%, 76.097107%, 79.560852%)" offset="0.625"/><stop stop-opacity="1" stop-color="rgb(0%, 76.098633%, 79.598999%)" offset="0.75"/><stop stop-opacity="1" stop-color="rgb(0%, 76.098633%, 79.598999%)" offset="0.855998"/><stop stop-opacity="1" stop-color="rgb(0%, 76.098633%, 79.598999%)" offset="1"/></linearGradient><clipPath id="793f787447"><path d="M 136 128 L 209 128 L 209 201 L 136 201 Z M 136 128 " clip-rule="nonzero"/></clipPath><clipPath id="e81e40f721"><path d="M 169.65625 128.058594 L 208.902344 167.304688 L 161.171875 215.035156 L 121.925781 175.789062 Z M 169.65625 128.058594 " clip-rule="nonzero"/></clipPath><clipPath id="5114e653f1"><path d="M 169.65625 128.058594 L 208.902344 167.304688 L 161.171875 215.035156 L 121.925781 175.789062 Z M 169.65625 128.058594 " clip-rule="nonzero"/></clipPath><clipPath id="7bc17603e5"><path d="M 155.464844 162.171875 L 141.546875 195.410156 L 174.785156 181.492188 L 174.003906 162.960938 Z M 174.78125 181.488281 L 175.585938 200.460938 L 208.820312 167.222656 Z M 136.484375 161.375 L 155.457031 162.179688 L 169.726562 128.128906 Z M 136.484375 161.375 " clip-rule="nonzero"/></clipPath><linearGradient x1="29.566719" gradientTransform="matrix(0.429927, 0.429927, -0.43253, 0.43253, 169.72792, 128.130567)" y1="-56.613588" x2="61.386486" gradientUnits="userSpaceOnUse" y2="133.457998" id="388e44710a"><stop stop-opacity="1" stop-color="rgb(100%, 81.199646%, 0%)" offset="0"/><stop stop-opacity="1" stop-color="rgb(100%, 81.199646%, 0%)" offset="0.144146"/><stop stop-opacity="1" stop-color="rgb(100%, 81.199646%, 0%)" offset="0.25"/><stop stop-opacity="1" stop-color="rgb(100%, 81.199646%, 0%)" offset="0.3125"/><stop stop-opacity="1" stop-color="rgb(100%, 81.199646%, 0%)" offset="0.34375"/><stop stop-opacity="1" stop-color="rgb(99.620056%, 81.17981%, 0.302124%)" offset="0.347656"/><stop stop-opacity="1" stop-color="rgb(99.240112%, 81.159973%, 0.604248%)" offset="0.351562"/><stop stop-opacity="1" stop-color="rgb(97.749329%, 81.083679%, 1.789856%)" offset="0.355469"/><stop stop-opacity="1" stop-color="rgb(96.258545%, 81.008911%, 2.97699%)" offset="0.359375"/><stop stop-opacity="1" stop-color="rgb(94.767761%, 80.932617%, 4.162598%)" offset="0.363281"/><stop stop-opacity="1" stop-color="rgb(93.278503%, 80.856323%, 5.349731%)" offset="0.367187"/><stop stop-opacity="1" stop-color="rgb(91.78772%, 80.780029%, 6.535339%)" offset="0.371094"/><stop stop-opacity="1" stop-color="rgb(90.296936%, 80.703735%, 7.722473%)" offset="0.375"/><stop stop-opacity="1" stop-color="rgb(88.806152%, 80.627441%, 8.908081%)" offset="0.378906"/><stop stop-opacity="1" stop-color="rgb(87.316895%, 80.552673%, 10.095215%)" offset="0.382812"/><stop stop-opacity="1" stop-color="rgb(85.826111%, 80.476379%, 11.280823%)" offset="0.386719"/><stop stop-opacity="1" stop-color="rgb(84.335327%, 80.400085%, 12.467957%)" offset="0.390625"/><stop stop-opacity="1" stop-color="rgb(82.844543%, 80.323792%, 13.653564%)" offset="0.394531"/><stop stop-opacity="1" stop-color="rgb(81.355286%, 80.249023%, 14.840698%)" offset="0.398437"/><stop stop-opacity="1" stop-color="rgb(79.864502%, 80.172729%, 16.026306%)" offset="0.402344"/><stop stop-opacity="1" stop-color="rgb(78.373718%, 80.096436%, 17.21344%)" offset="0.40625"/><stop stop-opacity="1" stop-color="rgb(76.882935%, 80.020142%, 18.399048%)" offset="0.410156"/><stop stop-opacity="1" stop-color="rgb(75.393677%, 79.943848%, 19.586182%)" offset="0.414062"/><stop stop-opacity="1" stop-color="rgb(73.902893%, 79.867554%, 20.77179%)" offset="0.417969"/><stop stop-opacity="1" stop-color="rgb(72.412109%, 79.792786%, 21.958923%)" offset="0.421875"/><stop stop-opacity="1" stop-color="rgb(70.921326%, 79.716492%, 23.144531%)" offset="0.425781"/><stop stop-opacity="1" stop-color="rgb(69.432068%, 79.640198%, 24.331665%)" offset="0.429688"/><stop stop-opacity="1" stop-color="rgb(67.941284%, 79.563904%, 25.517273%)" offset="0.433594"/><stop stop-opacity="1" stop-color="rgb(66.4505%, 79.48761%, 26.704407%)" offset="0.4375"/><stop stop-opacity="1" stop-color="rgb(64.959717%, 79.411316%, 27.890015%)" offset="0.441406"/><stop stop-opacity="1" stop-color="rgb(63.470459%, 79.336548%, 29.077148%)" offset="0.445312"/><stop stop-opacity="1" stop-color="rgb(61.979675%, 79.260254%, 30.262756%)" offset="0.449219"/><stop stop-opacity="1" stop-color="rgb(60.488892%, 79.18396%, 31.44989%)" offset="0.453125"/><stop stop-opacity="1" stop-color="rgb(58.998108%, 79.107666%, 32.635498%)" offset="0.457031"/><stop stop-opacity="1" stop-color="rgb(57.50885%, 79.032898%, 33.822632%)" offset="0.460938"/><stop stop-opacity="1" stop-color="rgb(56.018066%, 78.956604%, 35.00824%)" offset="0.464844"/><stop stop-opacity="1" stop-color="rgb(54.527283%, 78.88031%, 36.193848%)" offset="0.46875"/><stop stop-opacity="1" stop-color="rgb(53.036499%, 78.804016%, 37.379456%)" offset="0.472656"/><stop stop-opacity="1" stop-color="rgb(51.547241%, 78.727722%, 38.566589%)" offset="0.476562"/><stop stop-opacity="1" stop-color="rgb(50.056458%, 78.651428%, 39.752197%)" offset="0.480469"/><stop stop-opacity="1" stop-color="rgb(48.565674%, 78.57666%, 40.939331%)" offset="0.484375"/><stop stop-opacity="1" stop-color="rgb(47.07489%, 78.500366%, 42.124939%)" offset="0.488281"/><stop stop-opacity="1" stop-color="rgb(45.585632%, 78.424072%, 43.312073%)" offset="0.492188"/><stop stop-opacity="1" stop-color="rgb(44.094849%, 78.347778%, 44.497681%)" offset="0.496094"/><stop stop-opacity="1" stop-color="rgb(42.604065%, 78.271484%, 45.684814%)" offset="0.5"/><stop stop-opacity="1" stop-color="rgb(41.113281%, 78.19519%, 46.870422%)" offset="0.503906"/><stop stop-opacity="1" stop-color="rgb(39.624023%, 78.120422%, 48.057556%)" offset="0.507812"/><stop stop-opacity="1" stop-color="rgb(38.13324%, 78.044128%, 49.243164%)" offset="0.511719"/><stop stop-opacity="1" stop-color="rgb(36.642456%, 77.967834%, 50.430298%)" offset="0.515625"/><stop stop-opacity="1" stop-color="rgb(35.151672%, 77.891541%, 51.615906%)" offset="0.519531"/><stop stop-opacity="1" stop-color="rgb(33.662415%, 77.816772%, 52.80304%)" offset="0.523438"/><stop stop-opacity="1" stop-color="rgb(32.171631%, 77.740479%, 53.988647%)" offset="0.527344"/><stop stop-opacity="1" stop-color="rgb(30.680847%, 77.664185%, 55.175781%)" offset="0.53125"/><stop stop-opacity="1" stop-color="rgb(29.190063%, 77.587891%, 56.361389%)" offset="0.535156"/><stop stop-opacity="1" stop-color="rgb(27.700806%, 77.511597%, 57.548523%)" offset="0.539062"/><stop stop-opacity="1" stop-color="rgb(26.210022%, 77.435303%, 58.734131%)" offset="0.542969"/><stop stop-opacity="1" stop-color="rgb(24.719238%, 77.360535%, 59.921265%)" offset="0.546875"/><stop stop-opacity="1" stop-color="rgb(23.228455%, 77.284241%, 61.106873%)" offset="0.550781"/><stop stop-opacity="1" stop-color="rgb(21.739197%, 77.207947%, 62.294006%)" offset="0.554688"/><stop stop-opacity="1" stop-color="rgb(20.248413%, 77.131653%, 63.479614%)" offset="0.558594"/><stop stop-opacity="1" stop-color="rgb(18.757629%, 77.055359%, 64.666748%)" offset="0.5625"/><stop stop-opacity="1" stop-color="rgb(17.266846%, 76.979065%, 65.852356%)" offset="0.566406"/><stop stop-opacity="1" stop-color="rgb(15.777588%, 76.904297%, 67.03949%)" offset="0.570312"/><stop stop-opacity="1" stop-color="rgb(14.286804%, 76.828003%, 68.225098%)" offset="0.574219"/><stop stop-opacity="1" stop-color="rgb(12.796021%, 76.751709%, 69.412231%)" offset="0.578125"/><stop stop-opacity="1" stop-color="rgb(11.305237%, 76.675415%, 70.597839%)" offset="0.582031"/><stop stop-opacity="1" stop-color="rgb(9.815979%, 76.600647%, 71.784973%)" offset="0.585938"/><stop stop-opacity="1" stop-color="rgb(8.325195%, 76.524353%, 72.970581%)" offset="0.589844"/><stop stop-opacity="1" stop-color="rgb(6.834412%, 76.448059%, 74.157715%)" offset="0.59375"/><stop stop-opacity="1" stop-color="rgb(5.343628%, 76.371765%, 75.343323%)" offset="0.597656"/><stop stop-opacity="1" stop-color="rgb(3.85437%, 76.295471%, 76.530457%)" offset="0.601562"/><stop stop-opacity="1" stop-color="rgb(2.363586%, 76.219177%, 77.716064%)" offset="0.605469"/><stop stop-opacity="1" stop-color="rgb(0.872803%, 76.144409%, 78.903198%)" offset="0.609375"/><stop stop-opacity="1" stop-color="rgb(0.436401%, 76.121521%, 79.251099%)" offset="0.613281"/><stop stop-opacity="1" stop-color="rgb(0%, 76.098633%, 79.598999%)" offset="0.617187"/><stop stop-opacity="1" stop-color="rgb(0%, 76.098633%, 79.598999%)" offset="0.625"/><stop stop-opacity="1" stop-color="rgb(0%, 76.098633%, 79.598999%)" offset="0.75"/><stop stop-opacity="1" stop-color="rgb(0%, 76.098633%, 79.598999%)" offset="0.855854"/><stop stop-opacity="1" stop-color="rgb(0%, 76.098633%, 79.598999%)" offset="1"/></linearGradient><clipPath id="1ac42f8e11"><path d="M 212 112 L 225 112 L 225 125 L 212 125 Z M 212 112 " clip-rule="nonzero"/></clipPath><clipPath id="69e603a840"><path d="M 218.664062 109.699219 L 227.148438 118.1875 L 218.664062 126.671875 L 210.179688 118.1875 Z M 218.664062 109.699219 " clip-rule="nonzero"/></clipPath></defs><g clip-path="url(#cd44c34260)"><g clip-path="url(#4447ecad8b)"><g clip-path="url(#d1feee6664)"><g clip-path="url(#17e68432e4)"><path fill="url(#c60557525d)" d="M 188.636719 42.402344 L 82.683594 148.355469 L 188.636719 254.308594 L 294.585938 148.355469 Z M 188.636719 42.402344 " fill-rule="nonzero"/></g></g></g></g><g clip-path="url(#793f787447)"><g clip-path="url(#e81e40f721)"><g clip-path="url(#5114e653f1)"><g clip-path="url(#7bc17603e5)"><path fill="url(#388e44710a)" d="M 172.652344 91.960938 L 100.320312 164.296875 L 172.652344 236.628906 L 244.984375 164.296875 Z M 172.652344 91.960938 " fill-rule="nonzero"/></g></g></g></g><g clip-path="url(#1ac42f8e11)"><g clip-path="url(#69e603a840)"><path fill="#ffffff" d="M 222.90625 113.941406 C 220.5625 111.601562 216.765625 111.601562 214.421875 113.941406 C 212.078125 116.285156 212.078125 120.085938 214.421875 122.429688 C 216.765625 124.773438 220.5625 124.773438 222.90625 122.429688 C 225.25 120.085938 225.25 116.285156 222.90625 113.941406 " fill-opacity="1" fill-rule="nonzero"/></g></g><g fill="#000000" fill-opacity="1"><g transform="translate(96.275627, 256.842509)"><g><path d="M 20.125 -37.875 C 22.65625 -37.875 25.046875 -37.363281 27.296875 -36.34375 C 29.546875 -35.332031 31.503906 -33.945312 33.171875 -32.1875 C 34.835938 -30.4375 36.148438 -28.398438 37.109375 -26.078125 C 38.078125 -23.765625 38.5625 -21.289062 38.5625 -18.65625 C 38.5625 -16.050781 38.078125 -13.570312 37.109375 -11.21875 C 36.148438 -8.863281 34.835938 -6.804688 33.171875 -5.046875 C 31.503906 -3.296875 29.546875 -1.898438 27.296875 -0.859375 C 25.046875 0.171875 22.65625 0.6875 20.125 0.6875 C 17.59375 0.6875 15.203125 0.171875 12.953125 -0.859375 C 10.710938 -1.898438 8.765625 -3.296875 7.109375 -5.046875 C 5.460938 -6.804688 4.15625 -8.863281 3.1875 -11.21875 C 2.21875 -13.570312 1.734375 -16.050781 1.734375 -18.65625 C 1.734375 -21.289062 2.21875 -23.765625 3.1875 -26.078125 C 4.15625 -28.398438 5.460938 -30.4375 7.109375 -32.1875 C 8.765625 -33.945312 10.710938 -35.332031 12.953125 -36.34375 C 15.203125 -37.363281 17.59375 -37.875 20.125 -37.875 Z M 20.125 -7.265625 C 21.5625 -7.265625 22.910156 -7.5625 24.171875 -8.15625 C 25.441406 -8.757812 26.550781 -9.578125 27.5 -10.609375 C 28.445312 -11.648438 29.191406 -12.851562 29.734375 -14.21875 C 30.285156 -15.59375 30.5625 -17.070312 30.5625 -18.65625 C 30.5625 -20.226562 30.285156 -21.707031 29.734375 -23.09375 C 29.191406 -24.488281 28.445312 -25.703125 27.5 -26.734375 C 26.550781 -27.773438 25.441406 -28.59375 24.171875 -29.1875 C 22.910156 -29.78125 21.5625 -30.078125 20.125 -30.078125 C 18.6875 -30.078125 17.332031 -29.78125 16.0625 -29.1875 C 14.800781 -28.59375 13.695312 -27.773438 12.75 -26.734375 C 11.800781 -25.703125 11.050781 -24.488281 10.5 -23.09375 C 9.957031 -21.707031 9.6875 -20.226562 9.6875 -18.65625 C 9.6875 -17.070312 9.957031 -15.59375 10.5 -14.21875 C 11.050781 -12.851562 11.800781 -11.648438 12.75 -10.609375 C 13.695312 -9.578125 14.800781 -8.757812 16.0625 -8.15625 C 17.332031 -7.5625 18.6875 -7.265625 20.125 -7.265625 Z M 20.125 -7.265625 "/></g></g></g><g fill="#000000" fill-opacity="1"><g transform="translate(135.843772, 256.842509)"><g><path d="M 17.5 -26.875 C 19.320312 -26.875 21.019531 -26.507812 22.59375 -25.78125 C 24.175781 -25.0625 25.546875 -24.078125 26.703125 -22.828125 C 27.867188 -21.585938 28.773438 -20.132812 29.421875 -18.46875 C 30.078125 -16.800781 30.40625 -15.019531 30.40625 -13.125 C 30.40625 -11.226562 30.078125 -9.441406 29.421875 -7.765625 C 28.773438 -6.097656 27.867188 -4.640625 26.703125 -3.390625 C 25.546875 -2.148438 24.175781 -1.171875 22.59375 -0.453125 C 21.019531 0.265625 19.320312 0.625 17.5 0.625 C 15.945312 0.625 14.457031 0.351562 13.03125 -0.1875 C 11.613281 -0.726562 10.5 -1.421875 9.6875 -2.265625 L 8.640625 0 L 2.421875 0 L 2.421875 -38.46875 L 9.6875 -38.46875 L 9.6875 -24.03125 C 11.695312 -25.925781 14.300781 -26.875 17.5 -26.875 Z M 16.484375 -5.84375 C 17.429688 -5.84375 18.316406 -6.035156 19.140625 -6.421875 C 19.972656 -6.804688 20.703125 -7.320312 21.328125 -7.96875 C 21.960938 -8.625 22.457031 -9.390625 22.8125 -10.265625 C 23.164062 -11.148438 23.34375 -12.101562 23.34375 -13.125 C 23.34375 -14.101562 23.164062 -15.039062 22.8125 -15.9375 C 22.457031 -16.832031 21.960938 -17.601562 21.328125 -18.25 C 20.703125 -18.90625 19.972656 -19.425781 19.140625 -19.8125 C 18.316406 -20.195312 17.429688 -20.390625 16.484375 -20.390625 C 15.535156 -20.390625 14.648438 -20.253906 13.828125 -19.984375 C 13.003906 -19.722656 12.285156 -19.300781 11.671875 -18.71875 C 11.054688 -18.144531 10.570312 -17.390625 10.21875 -16.453125 C 9.863281 -15.523438 9.6875 -14.378906 9.6875 -13.015625 C 9.6875 -11.785156 9.863281 -10.722656 10.21875 -9.828125 C 10.570312 -8.929688 11.054688 -8.191406 11.671875 -7.609375 C 12.285156 -7.035156 13.003906 -6.597656 13.828125 -6.296875 C 14.648438 -5.992188 15.535156 -5.84375 16.484375 -5.84375 Z M 16.484375 -5.84375 "/></g></g></g><g fill="#000000" fill-opacity="1"><g transform="translate(166.244296, 256.842509)"><g><path d="M 18.96875 -13.703125 C 20.894531 -12.328125 21.859375 -10.375 21.859375 -7.84375 C 21.859375 -6.6875 21.585938 -5.597656 21.046875 -4.578125 C 20.503906 -3.566406 19.757812 -2.671875 18.8125 -1.890625 C 17.863281 -1.117188 16.753906 -0.515625 15.484375 -0.078125 C 14.222656 0.359375 12.875 0.578125 11.4375 0.578125 C 10.34375 0.578125 9.273438 0.4375 8.234375 0.15625 C 7.203125 -0.125 6.25 -0.507812 5.375 -1 C 4.5 -1.488281 3.734375 -2.078125 3.078125 -2.765625 C 2.429688 -3.453125 1.953125 -4.21875 1.640625 -5.0625 C 2.441406 -5.445312 3.332031 -5.875 4.3125 -6.34375 C 5.300781 -6.820312 6.164062 -7.253906 6.90625 -7.640625 C 7.21875 -7.109375 7.707031 -6.625 8.375 -6.1875 C 9.039062 -5.75 9.953125 -5.53125 11.109375 -5.53125 C 12.304688 -5.53125 13.1875 -5.8125 13.75 -6.375 C 14.3125 -6.9375 14.59375 -7.460938 14.59375 -7.953125 C 14.59375 -8.304688 14.398438 -8.628906 14.015625 -8.921875 C 13.628906 -9.222656 13.191406 -9.460938 12.703125 -9.640625 C 11.992188 -9.921875 11.410156 -10.066406 10.953125 -10.078125 C 10.503906 -10.097656 9.976562 -10.195312 9.375 -10.375 C 7.476562 -10.832031 6.03125 -11.4375 5.03125 -12.1875 C 4.03125 -12.945312 3.300781 -13.710938 2.84375 -14.484375 C 2.382812 -15.253906 2.128906 -15.988281 2.078125 -16.6875 C 2.023438 -17.394531 2 -17.960938 2 -18.390625 C 2 -19.515625 2.242188 -20.582031 2.734375 -21.59375 C 3.234375 -22.613281 3.910156 -23.5 4.765625 -24.25 C 5.628906 -25.007812 6.628906 -25.617188 7.765625 -26.078125 C 8.910156 -26.535156 10.132812 -26.765625 11.4375 -26.765625 C 12.519531 -26.765625 13.550781 -26.601562 14.53125 -26.28125 C 15.519531 -25.96875 16.414062 -25.53125 17.21875 -24.96875 C 18.03125 -24.40625 18.722656 -23.738281 19.296875 -22.96875 C 19.878906 -22.195312 20.3125 -21.335938 20.59375 -20.390625 L 14.96875 -18.5 C 14.75 -19.125 14.316406 -19.628906 13.671875 -20.015625 C 13.023438 -20.398438 12.332031 -20.59375 11.59375 -20.59375 C 10.851562 -20.59375 10.253906 -20.347656 9.796875 -19.859375 C 9.335938 -19.367188 9.109375 -18.878906 9.109375 -18.390625 C 9.109375 -17.796875 9.328125 -17.328125 9.765625 -16.984375 C 10.210938 -16.648438 10.695312 -16.414062 11.21875 -16.28125 C 11.601562 -16.207031 11.976562 -16.144531 12.34375 -16.09375 C 12.71875 -16.039062 13.082031 -15.976562 13.4375 -15.90625 C 14.664062 -15.625 15.726562 -15.304688 16.625 -14.953125 C 17.519531 -14.609375 18.300781 -14.191406 18.96875 -13.703125 Z M 18.96875 -13.703125 "/></g></g></g><g fill="#000000" fill-opacity="1"><g transform="translate(188.847057, 256.842509)"><g><path d="M 16.90625 -26.875 C 18.632812 -26.875 20.242188 -26.507812 21.734375 -25.78125 C 23.222656 -25.0625 24.507812 -24.078125 25.59375 -22.828125 C 26.6875 -21.585938 27.539062 -20.132812 28.15625 -18.46875 C 28.769531 -16.800781 29.078125 -15.019531 29.078125 -13.125 L 29.078125 0 L 21.96875 0 L 21.96875 -4.796875 C 21.96875 -6.128906 21.972656 -7.503906 21.984375 -8.921875 C 22.003906 -10.347656 22.015625 -11.570312 22.015625 -12.59375 C 22.015625 -13.570312 21.859375 -14.535156 21.546875 -15.484375 C 21.234375 -16.429688 20.796875 -17.265625 20.234375 -17.984375 C 19.671875 -18.710938 19.007812 -19.296875 18.25 -19.734375 C 17.5 -20.171875 16.703125 -20.390625 15.859375 -20.390625 C 15.046875 -20.390625 14.269531 -20.238281 13.53125 -19.9375 C 12.800781 -19.644531 12.15625 -19.207031 11.59375 -18.625 C 11.03125 -18.039062 10.582031 -17.3125 10.25 -16.4375 C 9.914062 -15.5625 9.75 -14.523438 9.75 -13.328125 L 9.75 0 L 2.421875 0 L 2.421875 -38.46875 L 9.75 -38.46875 L 9.75 -24.125 C 10.65625 -25.007812 11.695312 -25.6875 12.875 -26.15625 C 14.050781 -26.632812 15.394531 -26.875 16.90625 -26.875 Z M 16.90625 -26.875 "/></g></g></g><g fill="#000000" fill-opacity="1"><g transform="translate(218.088454, 256.842509)"><g><path d="M 15.234375 -26.875 C 17.085938 -26.875 18.835938 -26.507812 20.484375 -25.78125 C 22.140625 -25.0625 23.582031 -24.078125 24.8125 -22.828125 C 26.039062 -21.585938 27.015625 -20.132812 27.734375 -18.46875 C 28.453125 -16.800781 28.8125 -15.019531 28.8125 -13.125 C 28.8125 -11.226562 28.453125 -9.441406 27.734375 -7.765625 C 27.015625 -6.097656 26.039062 -4.640625 24.8125 -3.390625 C 23.582031 -2.148438 22.140625 -1.171875 20.484375 -0.453125 C 18.835938 0.265625 17.085938 0.625 15.234375 0.625 C 13.328125 0.625 11.546875 0.265625 9.890625 -0.453125 C 8.242188 -1.171875 6.804688 -2.148438 5.578125 -3.390625 C 4.347656 -4.640625 3.375 -6.097656 2.65625 -7.765625 C 1.9375 -9.441406 1.578125 -11.226562 1.578125 -13.125 C 1.578125 -15.019531 1.9375 -16.800781 2.65625 -18.46875 C 3.375 -20.132812 4.347656 -21.585938 5.578125 -22.828125 C 6.804688 -24.078125 8.242188 -25.0625 9.890625 -25.78125 C 11.546875 -26.507812 13.328125 -26.875 15.234375 -26.875 Z M 15.234375 -5.75 C 16.109375 -5.75 16.921875 -5.921875 17.671875 -6.265625 C 18.429688 -6.617188 19.097656 -7.101562 19.671875 -7.71875 C 20.253906 -8.332031 20.710938 -9.066406 21.046875 -9.921875 C 21.378906 -10.785156 21.546875 -11.742188 21.546875 -12.796875 C 21.546875 -13.859375 21.378906 -14.84375 21.046875 -15.75 C 20.710938 -16.664062 20.253906 -17.460938 19.671875 -18.140625 C 19.097656 -18.828125 18.429688 -19.375 17.671875 -19.78125 C 16.921875 -20.1875 16.109375 -20.390625 15.234375 -20.390625 C 14.347656 -20.390625 13.519531 -20.1875 12.75 -19.78125 C 11.976562 -19.375 11.300781 -18.828125 10.71875 -18.140625 C 10.144531 -17.460938 9.6875 -16.664062 9.34375 -15.75 C 9.007812 -14.84375 8.84375 -13.859375 8.84375 -12.796875 C 8.84375 -11.742188 9.007812 -10.785156 9.34375 -9.921875 C 9.6875 -9.066406 10.144531 -8.332031 10.71875 -7.71875 C 11.300781 -7.101562 11.976562 -6.617188 12.75 -6.265625 C 13.519531 -5.921875 14.347656 -5.75 15.234375 -5.75 Z M 15.234375 -5.75 "/></g></g></g><g fill="#000000" fill-opacity="1"><g transform="translate(247.59329, 256.842509)"><g><path d="M 17.5 -26.875 C 19.351562 -26.875 21.070312 -26.507812 22.65625 -25.78125 C 24.238281 -25.0625 25.597656 -24.078125 26.734375 -22.828125 C 27.878906 -21.585938 28.773438 -20.132812 29.421875 -18.46875 C 30.078125 -16.800781 30.40625 -15.019531 30.40625 -13.125 C 30.40625 -11.226562 30.078125 -9.441406 29.421875 -7.765625 C 28.773438 -6.097656 27.878906 -4.640625 26.734375 -3.390625 C 25.597656 -2.148438 24.238281 -1.171875 22.65625 -0.453125 C 21.070312 0.265625 19.351562 0.625 17.5 0.625 C 15.988281 0.625 14.507812 0.351562 13.0625 -0.1875 C 11.625 -0.726562 10.5 -1.421875 9.6875 -2.265625 L 9.6875 10.4375 L 2.421875 10.4375 L 2.421875 -26.140625 L 8.640625 -26.140625 L 9.6875 -24.34375 C 10.707031 -25.257812 11.847656 -25.910156 13.109375 -26.296875 C 14.378906 -26.679688 15.84375 -26.875 17.5 -26.875 Z M 16.546875 -5.84375 C 17.492188 -5.84375 18.378906 -6.035156 19.203125 -6.421875 C 20.023438 -6.804688 20.742188 -7.320312 21.359375 -7.96875 C 21.972656 -8.625 22.460938 -9.390625 22.828125 -10.265625 C 23.203125 -11.148438 23.390625 -12.101562 23.390625 -13.125 C 23.390625 -14.101562 23.203125 -15.039062 22.828125 -15.9375 C 22.460938 -16.832031 21.972656 -17.601562 21.359375 -18.25 C 20.742188 -18.90625 20.023438 -19.425781 19.203125 -19.8125 C 18.378906 -20.195312 17.492188 -20.390625 16.546875 -20.390625 C 15.597656 -20.390625 14.707031 -20.253906 13.875 -19.984375 C 13.050781 -19.722656 12.332031 -19.300781 11.71875 -18.71875 C 11.101562 -18.144531 10.617188 -17.390625 10.265625 -16.453125 C 9.921875 -15.523438 9.75 -14.414062 9.75 -13.125 C 9.75 -11.894531 9.921875 -10.832031 10.265625 -9.9375 C 10.617188 -9.039062 11.101562 -8.285156 11.71875 -7.671875 C 12.332031 -7.054688 13.050781 -6.597656 13.875 -6.296875 C 14.707031 -5.992188 15.597656 -5.84375 16.546875 -5.84375 Z M 16.546875 -5.84375 "/></g></g></g></svg>